<?xml version="1.0" encoding="UTF-8" standalone="no"?>
<!DOCTYPE svg PUBLIC "-//W3C//DTD SVG 1.1//EN"
 "http://www.w3.org/Graphics/SVG/1.1/DTD/svg11.dtd">
<!-- Generated by graphviz version 6.0.2 (20221011.1828)
 -->
<!-- Title: G Pages: 1 -->
<svg width="876pt" height="780pt"
 viewBox="0.00 0.00 876.28 780.41" xmlns="http://www.w3.org/2000/svg" xmlns:xlink="http://www.w3.org/1999/xlink">
<g id="graph0" class="graph" transform="scale(1 1) rotate(0) translate(4 776.41)">
<title>G</title><style>.edge>path:hover{stroke-width:8}</style>
<polygon fill="white" stroke="none" points="-4,4 -4,-776.41 872.28,-776.41 872.28,4 -4,4"/>
<!-- matplotlib -->
<g id="node1" class="node">
<title>matplotlib</title><style>.edge>path:hover{stroke-width:8}</style>
<ellipse fill="#bc2f2f" stroke="black" cx="574.64" cy="-566.98" rx="34.96" ry="18"/>
<text text-anchor="middle" x="574.64" y="-564.48" font-family="Helvetica,sans-Serif" font-size="10.00" fill="#ffffff">matplotlib</text>
</g>
<!-- spatialgasmodel_utils -->
<g id="node18" class="node">
<title>spatialgasmodel_utils</title><style>.edge>path:hover{stroke-width:8}</style>
<ellipse fill="#bd04bd" stroke="black" cx="522.64" cy="-413.35" rx="63.78" ry="21.43"/>
<text text-anchor="middle" x="522.64" y="-416.35" font-family="Helvetica,sans-Serif" font-size="10.00" fill="#ffffff">spatialgasmodel.</text>
<text text-anchor="middle" x="522.64" y="-405.35" font-family="Helvetica,sans-Serif" font-size="10.00" fill="#ffffff">utils</text>
</g>
<!-- matplotlib&#45;&gt;spatialgasmodel_utils -->
<g id="edge1" class="edge">
<title>matplotlib&#45;&gt;spatialgasmodel_utils</title><style>.edge>path:hover{stroke-width:8}</style>
<path fill="none" stroke="black" d="M601.86,-555.31C627.57,-543.31 661.03,-521.66 652.64,-492.77"/>
<path fill="none" stroke="black" d="M652.64,-490.77C643.58,-459.58 612.76,-440.67 583.41,-429.46"/>
<polygon fill="#bc2f2f" stroke="black" points="584.56,-426.16 573.96,-426.09 582.2,-432.75 584.56,-426.16"/>
</g>
<!-- matplotlib_pyplot -->
<g id="node2" class="node">
<title>matplotlib_pyplot</title><style>.edge>path:hover{stroke-width:8}</style>
<ellipse fill="#b83d3d" stroke="black" cx="574.64" cy="-642.2" rx="43.68" ry="21.43"/>
<text text-anchor="middle" x="574.64" y="-645.2" font-family="Helvetica,sans-Serif" font-size="10.00" fill="#ffffff">matplotlib.</text>
<text text-anchor="middle" x="574.64" y="-634.2" font-family="Helvetica,sans-Serif" font-size="10.00" fill="#ffffff">pyplot</text>
</g>
<!-- matplotlib_pyplot&#45;&gt;matplotlib -->
<g id="edge2" class="edge">
<title>matplotlib_pyplot&#45;&gt;matplotlib</title><style>.edge>path:hover{stroke-width:8}</style>
<path fill="none" stroke="black" d="M574.64,-620.8C574.64,-612.95 574.64,-603.85 574.64,-595.44"/>
<polygon fill="#b83d3d" stroke="black" points="578.14,-595.29 574.64,-585.29 571.14,-595.29 578.14,-595.29"/>
</g>
<!-- matplotlib_pyplot&#45;&gt;spatialgasmodel_utils -->
<g id="edge3" class="edge">
<title>matplotlib_pyplot&#45;&gt;spatialgasmodel_utils</title><style>.edge>path:hover{stroke-width:8}</style>
<path fill="none" stroke="black" d="M555.15,-622.87C545.79,-612.72 535.57,-599.28 530.64,-584.98 516.59,-544.24 545.74,-533.21 560.64,-492.77"/>
</g>
<!-- numba -->
<g id="node3" class="node">
<title>numba</title><style>.edge>path:hover{stroke-width:8}</style>
<ellipse fill="#d3d317" stroke="black" cx="355.64" cy="-566.98" rx="27.16" ry="18"/>
<text text-anchor="middle" x="355.64" y="-564.48" font-family="Helvetica,sans-Serif" font-size="10.00" fill="#000000">numba</text>
</g>
<!-- spatialgasmodel_inference -->
<g id="node11" class="node">
<title>spatialgasmodel_inference</title><style>.edge>path:hover{stroke-width:8}</style>
<ellipse fill="#a135a1" stroke="black" cx="804.64" cy="-21.21" rx="63.78" ry="21.43"/>
<text text-anchor="middle" x="804.64" y="-24.21" font-family="Helvetica,sans-Serif" font-size="10.00" fill="#ffffff">spatialgasmodel.</text>
<text text-anchor="middle" x="804.64" y="-13.21" font-family="Helvetica,sans-Serif" font-size="10.00" fill="#ffffff">inference</text>
</g>
<!-- numba&#45;&gt;spatialgasmodel_inference -->
<g id="edge4" class="edge">
<title>numba&#45;&gt;spatialgasmodel_inference</title><style>.edge>path:hover{stroke-width:8}</style>
<path fill="none" stroke="black" d="M804.64,-412.35C838.49,-340.51 813.69,-313.27 828.64,-235.28 833.49,-209.99 839.59,-204.63 842.64,-179.07"/>
<path fill="none" stroke="black" d="M381.68,-561.57C470.4,-545.93 757.96,-489.95 804.64,-414.35"/>
<path fill="none" stroke="black" d="M842.64,-177.07C845.05,-132.42 829.29,-82.47 817.33,-51.68"/>
<polygon fill="#d3d317" stroke="black" points="820.58,-50.37 813.61,-42.39 814.08,-52.97 820.58,-50.37"/>
</g>
<!-- spatialgasmodel_simulation -->
<g id="node15" class="node">
<title>spatialgasmodel_simulation</title><style>.edge>path:hover{stroke-width:8}</style>
<ellipse fill="#993399" stroke="black" cx="338.64" cy="-334.92" rx="63.78" ry="21.43"/>
<text text-anchor="middle" x="338.64" y="-337.92" font-family="Helvetica,sans-Serif" font-size="10.00" fill="#ffffff">spatialgasmodel.</text>
<text text-anchor="middle" x="338.64" y="-326.92" font-family="Helvetica,sans-Serif" font-size="10.00" fill="#ffffff">simulation</text>
</g>
<!-- numba&#45;&gt;spatialgasmodel_simulation -->
<g id="edge5" class="edge">
<title>numba&#45;&gt;spatialgasmodel_simulation</title><style>.edge>path:hover{stroke-width:8}</style>
<path fill="none" stroke="black" d="M356.63,-548.62C358.15,-517.22 360.11,-449 352.64,-392.13 351.51,-383.55 349.56,-374.39 347.47,-366.01"/>
<polygon fill="#d3d317" stroke="black" points="350.83,-365.04 344.89,-356.26 344.06,-366.83 350.83,-365.04"/>
</g>
<!-- spatialgasmodel_starting_values -->
<g id="node17" class="node">
<title>spatialgasmodel_starting_values</title><style>.edge>path:hover{stroke-width:8}</style>
<ellipse fill="#993399" stroke="black" cx="544.64" cy="-21.21" rx="63.78" ry="21.43"/>
<text text-anchor="middle" x="544.64" y="-24.21" font-family="Helvetica,sans-Serif" font-size="10.00" fill="#ffffff">spatialgasmodel.</text>
<text text-anchor="middle" x="544.64" y="-13.21" font-family="Helvetica,sans-Serif" font-size="10.00" fill="#ffffff">starting_values</text>
</g>
<!-- numba&#45;&gt;spatialgasmodel_starting_values -->
<g id="edge6" class="edge">
<title>numba&#45;&gt;spatialgasmodel_starting_values</title><style>.edge>path:hover{stroke-width:8}</style>
<path fill="none" stroke="black" d="M344.86,-550.36C334.19,-535.19 317.09,-511.75 300.64,-492.77"/>
</g>
<!-- numba&#45;&gt;spatialgasmodel_utils -->
<g id="edge7" class="edge">
<title>numba&#45;&gt;spatialgasmodel_utils</title><style>.edge>path:hover{stroke-width:8}</style>
<path fill="none" stroke="black" d="M382.07,-562.97C419.82,-557.7 490.31,-544.24 541.64,-512.98 552.17,-506.57 556.38,-504.34 560.64,-492.77"/>
</g>
<!-- numpy -->
<g id="node4" class="node">
<title>numpy</title><style>.edge>path:hover{stroke-width:8}</style>
<ellipse fill="#06f906" stroke="black" cx="646.64" cy="-754.41" rx="27.16" ry="18"/>
<text text-anchor="middle" x="646.64" y="-751.91" font-family="Helvetica,sans-Serif" font-size="10.00" fill="#000000">numpy</text>
</g>
<!-- numpy&#45;&gt;matplotlib -->
<g id="edge8" class="edge">
<title>numpy&#45;&gt;matplotlib</title><style>.edge>path:hover{stroke-width:8}</style>
<path fill="none" stroke="black" d="M646.64,-699.41C637.98,-664.61 645.2,-652.26 627.64,-620.98 620.9,-608.99 610.69,-597.86 601.02,-588.93"/>
<polygon fill="#06f906" stroke="black" points="603.28,-586.25 593.46,-582.26 598.65,-591.5 603.28,-586.25"/>
</g>
<!-- numpy&#45;&gt;matplotlib_pyplot -->
<g id="edge9" class="edge">
<title>numpy&#45;&gt;matplotlib_pyplot</title><style>.edge>path:hover{stroke-width:8}</style>
<path fill="none" stroke="black" d="M646.64,-699.41C642.58,-683.1 629.54,-670.66 615.65,-661.68"/>
<polygon fill="#06f906" stroke="black" points="617.35,-658.62 606.97,-656.53 613.78,-664.64 617.35,-658.62"/>
</g>
<!-- numpy&#45;&gt;numba -->
<g id="edge10" class="edge">
<title>numpy&#45;&gt;numba</title><style>.edge>path:hover{stroke-width:8}</style>
<path fill="none" stroke="black" d="M355.64,-641.2C342.73,-630.15 343.31,-610.67 346.8,-594.58"/>
<polygon fill="#06f906" stroke="black" points="350.26,-595.18 349.41,-584.62 343.49,-593.4 350.26,-595.18"/>
</g>
<!-- scipy -->
<g id="node6" class="node">
<title>scipy</title><style>.edge>path:hover{stroke-width:8}</style>
<ellipse fill="#1818dd" stroke="black" cx="701.64" cy="-642.2" rx="27" ry="18"/>
<text text-anchor="middle" x="701.64" y="-639.7" font-family="Helvetica,sans-Serif" font-size="10.00" fill="#ffffff">scipy</text>
</g>
<!-- numpy&#45;&gt;scipy -->
<g id="edge11" class="edge">
<title>numpy&#45;&gt;scipy</title><style>.edge>path:hover{stroke-width:8}</style>
<path fill="none" stroke="black" d="M646.64,-699.41C642.4,-682.35 656.33,-668.24 671.23,-658.42"/>
<polygon fill="#06f906" stroke="black" points="673.23,-661.3 679.99,-653.14 669.61,-655.3 673.23,-661.3"/>
</g>
<!-- spatialgasmodel_covariates -->
<g id="node8" class="node">
<title>spatialgasmodel_covariates</title><style>.edge>path:hover{stroke-width:8}</style>
<ellipse fill="#c040bf" stroke="black" cx="208.64" cy="-491.77" rx="63.78" ry="21.43"/>
<text text-anchor="middle" x="208.64" y="-494.77" font-family="Helvetica,sans-Serif" font-size="10.00" fill="#ffffff">spatialgasmodel.</text>
<text text-anchor="middle" x="208.64" y="-483.77" font-family="Helvetica,sans-Serif" font-size="10.00" fill="#ffffff">covariates</text>
</g>
<!-- numpy&#45;&gt;spatialgasmodel_covariates -->
<g id="edge12" class="edge">
<title>numpy&#45;&gt;spatialgasmodel_covariates</title><style>.edge>path:hover{stroke-width:8}</style>
<path fill="none" stroke="black" d="M300.64,-565.98C296.65,-542.49 277.17,-525.2 257.16,-513.34"/>
<polygon fill="#06f906" stroke="black" points="258.73,-510.21 248.29,-508.43 255.34,-516.34 258.73,-510.21"/>
</g>
<!-- spatialgasmodel_estimate -->
<g id="node9" class="node">
<title>spatialgasmodel_estimate</title><style>.edge>path:hover{stroke-width:8}</style>
<ellipse fill="#822b82" stroke="black" cx="674.64" cy="-334.92" rx="63.78" ry="21.43"/>
<text text-anchor="middle" x="674.64" y="-337.92" font-family="Helvetica,sans-Serif" font-size="10.00" fill="#ffffff">spatialgasmodel.</text>
<text text-anchor="middle" x="674.64" y="-326.92" font-family="Helvetica,sans-Serif" font-size="10.00" fill="#ffffff">estimate</text>
</g>
<!-- numpy&#45;&gt;spatialgasmodel_estimate -->
<g id="edge13" class="edge">
<title>numpy&#45;&gt;spatialgasmodel_estimate</title><style>.edge>path:hover{stroke-width:8}</style>
<path fill="none" stroke="black" d="M801.64,-641.2C805.86,-635.12 720.85,-440.7 687.65,-365.35"/>
<polygon fill="#06f906" stroke="black" points="690.74,-363.68 683.5,-355.95 684.33,-366.51 690.74,-363.68"/>
<path fill="none" stroke="black" d="M646.64,-699.41C627.73,-628.61 757.28,-701.52 801.64,-643.2"/>
</g>
<!-- spatialgasmodel_filter -->
<g id="node10" class="node">
<title>spatialgasmodel_filter</title><style>.edge>path:hover{stroke-width:8}</style>
<ellipse fill="#b42db4" stroke="black" cx="636.64" cy="-178.07" rx="63.78" ry="21.43"/>
<text text-anchor="middle" x="636.64" y="-181.07" font-family="Helvetica,sans-Serif" font-size="10.00" fill="#ffffff">spatialgasmodel.</text>
<text text-anchor="middle" x="636.64" y="-170.07" font-family="Helvetica,sans-Serif" font-size="10.00" fill="#ffffff">filter</text>
</g>
<!-- numpy&#45;&gt;spatialgasmodel_filter -->
<g id="edge14" class="edge">
<title>numpy&#45;&gt;spatialgasmodel_filter</title><style>.edge>path:hover{stroke-width:8}</style>
<path fill="none" stroke="black" d="M801.64,-641.2C824.22,-611.52 842.06,-605.27 842.64,-567.98"/>
<path fill="none" stroke="black" d="M842.64,-565.98C843.82,-490.61 766.64,-489.73 766.64,-414.35 766.64,-414.35 766.64,-414.35 766.64,-333.92 766.64,-288.8 770.34,-270.9 742.64,-235.28 729.45,-218.32 709.69,-205.9 690.79,-197.12"/>
<polygon fill="#06f906" stroke="black" points="692.17,-193.91 681.61,-193.1 689.36,-200.32 692.17,-193.91"/>
</g>
<!-- numpy&#45;&gt;spatialgasmodel_inference -->
<g id="edge15" class="edge">
<title>numpy&#45;&gt;spatialgasmodel_inference</title><style>.edge>path:hover{stroke-width:8}</style>
<path fill="none" stroke="black" d="M842.64,-255.49C834.1,-222.62 843.17,-213.03 842.64,-179.07"/>
</g>
<!-- spatialgasmodel_likelihood -->
<g id="node12" class="node">
<title>spatialgasmodel_likelihood</title><style>.edge>path:hover{stroke-width:8}</style>
<ellipse fill="#b620b6" stroke="black" cx="674.64" cy="-99.64" rx="63.78" ry="21.43"/>
<text text-anchor="middle" x="674.64" y="-102.64" font-family="Helvetica,sans-Serif" font-size="10.00" fill="#ffffff">spatialgasmodel.</text>
<text text-anchor="middle" x="674.64" y="-91.64" font-family="Helvetica,sans-Serif" font-size="10.00" fill="#ffffff">likelihood</text>
</g>
<!-- numpy&#45;&gt;spatialgasmodel_likelihood -->
<g id="edge16" class="edge">
<title>numpy&#45;&gt;spatialgasmodel_likelihood</title><style>.edge>path:hover{stroke-width:8}</style>
<path fill="none" stroke="black" d="M842.64,-565.98C860.27,-430.02 873.31,-391.13 842.64,-257.49"/>
<path fill="none" stroke="black" d="M842.64,-255.49C822.68,-194.03 760.09,-148.08 717.21,-122.79"/>
<polygon fill="#06f906" stroke="black" points="718.79,-119.67 708.38,-117.71 715.3,-125.73 718.79,-119.67"/>
</g>
<!-- spatialgasmodel_model -->
<g id="node13" class="node">
<title>spatialgasmodel_model</title><style>.edge>path:hover{stroke-width:8}</style>
<ellipse fill="#a328a3" stroke="black" cx="376.64" cy="-256.49" rx="63.78" ry="21.43"/>
<text text-anchor="middle" x="376.64" y="-259.49" font-family="Helvetica,sans-Serif" font-size="10.00" fill="#ffffff">spatialgasmodel.</text>
<text text-anchor="middle" x="376.64" y="-248.49" font-family="Helvetica,sans-Serif" font-size="10.00" fill="#ffffff">model</text>
</g>
<!-- numpy&#45;&gt;spatialgasmodel_model -->
<g id="edge17" class="edge">
<title>numpy&#45;&gt;spatialgasmodel_model</title><style>.edge>path:hover{stroke-width:8}</style>
<path fill="none" stroke="black" d="M338.64,-412.35C324.71,-361.05 233.55,-387.44 246.64,-335.92"/>
<path fill="none" stroke="black" d="M338.64,-490.77C337.58,-456.82 347.54,-447.12 338.64,-414.35"/>
</g>
<!-- spatialgasmodel_results -->
<g id="node14" class="node">
<title>spatialgasmodel_results</title><style>.edge>path:hover{stroke-width:8}</style>
<ellipse fill="#bc2fbc" stroke="black" cx="246.64" cy="-413.35" rx="63.78" ry="21.43"/>
<text text-anchor="middle" x="246.64" y="-416.35" font-family="Helvetica,sans-Serif" font-size="10.00" fill="#ffffff">spatialgasmodel.</text>
<text text-anchor="middle" x="246.64" y="-405.35" font-family="Helvetica,sans-Serif" font-size="10.00" fill="#ffffff">results</text>
</g>
<!-- numpy&#45;&gt;spatialgasmodel_results -->
<g id="edge18" class="edge">
<title>numpy&#45;&gt;spatialgasmodel_results</title><style>.edge>path:hover{stroke-width:8}</style>
<path fill="none" stroke="black" d="M300.64,-565.98C294.5,-529.84 339.79,-529.41 338.64,-492.77"/>
<path fill="none" stroke="black" d="M338.64,-490.77C337.85,-465.6 317.16,-447.12 295.6,-434.65"/>
<polygon fill="#06f906" stroke="black" points="297.15,-431.51 286.69,-429.83 293.82,-437.67 297.15,-431.51"/>
</g>
<!-- numpy&#45;&gt;spatialgasmodel_simulation -->
<g id="edge19" class="edge">
<title>numpy&#45;&gt;spatialgasmodel_simulation</title><style>.edge>path:hover{stroke-width:8}</style>
<path fill="none" stroke="black" d="M338.64,-412.35C334.65,-397.65 334.24,-380.78 334.99,-366.62"/>
<polygon fill="#06f906" stroke="black" points="338.5,-366.65 335.76,-356.42 331.52,-366.13 338.5,-366.65"/>
</g>
<!-- spatialgasmodel_specification -->
<g id="node16" class="node">
<title>spatialgasmodel_specification</title><style>.edge>path:hover{stroke-width:8}</style>
<ellipse fill="#f906f9" stroke="black" cx="468.64" cy="-491.77" rx="63.78" ry="21.43"/>
<text text-anchor="middle" x="468.64" y="-494.77" font-family="Helvetica,sans-Serif" font-size="10.00" fill="#ffffff">spatialgasmodel.</text>
<text text-anchor="middle" x="468.64" y="-483.77" font-family="Helvetica,sans-Serif" font-size="10.00" fill="#ffffff">specification</text>
</g>
<!-- numpy&#45;&gt;spatialgasmodel_specification -->
<g id="edge20" class="edge">
<title>numpy&#45;&gt;spatialgasmodel_specification</title><style>.edge>path:hover{stroke-width:8}</style>
<path fill="none" stroke="black" d="M300.64,-565.98C296.54,-541.87 357.96,-520.31 407.68,-506.94"/>
<polygon fill="#06f906" stroke="black" points="408.67,-510.3 417.45,-504.38 406.89,-503.53 408.67,-510.3"/>
</g>
<!-- numpy&#45;&gt;spatialgasmodel_starting_values -->
<g id="edge21" class="edge">
<title>numpy&#45;&gt;spatialgasmodel_starting_values</title><style>.edge>path:hover{stroke-width:8}</style>
<path fill="none" stroke="black" d="M300.64,-490.77C292.56,-481.46 292.03,-477.2 281.64,-470.56 239.02,-443.3 203.22,-475.6 173.64,-434.56 162.61,-419.26 167.66,-410.02 173.64,-392.13 194.32,-330.24 221.82,-326.06 265.64,-277.71 282.64,-258.95 282.53,-249.24 303.64,-235.28 368.26,-192.54 447.17,-253.51 468.64,-179.07"/>
<path fill="none" stroke="black" d="M468.64,-177.07C482.02,-130.65 508.72,-81.24 526.63,-51.05"/>
<polygon fill="#06f906" stroke="black" points="529.73,-52.69 531.89,-42.32 523.73,-49.08 529.73,-52.69"/>
<path fill="none" stroke="black" d="M300.64,-565.98C295.19,-533.91 321.33,-517.88 300.64,-492.77"/>
</g>
<!-- numpy&#45;&gt;spatialgasmodel_utils -->
<g id="edge22" class="edge">
<title>numpy&#45;&gt;spatialgasmodel_utils</title><style>.edge>path:hover{stroke-width:8}</style>
<path fill="none" stroke="black" d="M300.64,-565.98C280.53,-447.63 519.85,-605.68 560.64,-492.77"/>
<path fill="none" stroke="black" d="M560.64,-490.77C566.74,-473.88 558.55,-455.85 548.23,-441.55"/>
<polygon fill="#06f906" stroke="black" points="550.92,-439.31 541.99,-433.59 545.41,-443.62 550.92,-439.31"/>
</g>
<!-- spatialgasmodel_weighting_matrix -->
<g id="node20" class="node">
<title>spatialgasmodel_weighting_matrix</title><style>.edge>path:hover{stroke-width:8}</style>
<ellipse fill="#c040bf" stroke="black" cx="63.64" cy="-491.77" rx="63.78" ry="21.43"/>
<text text-anchor="middle" x="63.64" y="-494.77" font-family="Helvetica,sans-Serif" font-size="10.00" fill="#ffffff">spatialgasmodel.</text>
<text text-anchor="middle" x="63.64" y="-483.77" font-family="Helvetica,sans-Serif" font-size="10.00" fill="#ffffff">weighting_matrix</text>
</g>
<!-- numpy&#45;&gt;spatialgasmodel_weighting_matrix -->
<g id="edge23" class="edge">
<title>numpy&#45;&gt;spatialgasmodel_weighting_matrix</title><style>.edge>path:hover{stroke-width:8}</style>
<path fill="none" stroke="black" d="M300.64,-565.98C299.85,-561.36 190.42,-529.14 120.55,-509.01"/>
<polygon fill="#06f906" stroke="black" points="121.12,-505.53 110.54,-506.13 119.19,-512.26 121.12,-505.53"/>
<path fill="none" stroke="black" d="M355.64,-641.2C324.72,-614.73 307.46,-608.11 300.64,-567.98"/>
<path fill="none" stroke="black" d="M646.64,-699.41C629.64,-635.78 405.67,-686.03 355.64,-643.2"/>
<path fill="none" stroke="black" d="M648.85,-736.41C649.68,-725.87 649.77,-712.15 646.64,-700.41"/>
</g>
<!-- pandas -->
<g id="node5" class="node">
<title>pandas</title><style>.edge>path:hover{stroke-width:8}</style>
<ellipse fill="#40bfc0" stroke="black" cx="655.64" cy="-566.98" rx="28.01" ry="18"/>
<text text-anchor="middle" x="655.64" y="-564.48" font-family="Helvetica,sans-Serif" font-size="10.00" fill="#000000">pandas</text>
</g>
<!-- pandas&#45;&gt;spatialgasmodel_utils -->
<g id="edge24" class="edge">
<title>pandas&#45;&gt;spatialgasmodel_utils</title><style>.edge>path:hover{stroke-width:8}</style>
<path fill="none" stroke="black" d="M657.23,-548.75C658.08,-533.67 658.03,-511.34 652.64,-492.77"/>
</g>
<!-- scipy&#45;&gt;numba -->
<g id="edge25" class="edge">
<title>scipy&#45;&gt;numba</title><style>.edge>path:hover{stroke-width:8}</style>
<path fill="none" stroke="black" d="M677.42,-634.1C663.03,-630 644.37,-624.89 627.64,-620.98 543.71,-601.37 444.04,-583.25 391.76,-574.14"/>
<polygon fill="#1818dd" stroke="black" points="392.1,-570.65 381.65,-572.39 390.91,-577.55 392.1,-570.65"/>
</g>
<!-- scipy&#45;&gt;spatialgasmodel_estimate -->
<g id="edge26" class="edge">
<title>scipy&#45;&gt;spatialgasmodel_estimate</title><style>.edge>path:hover{stroke-width:8}</style>
<path fill="none" stroke="black" d="M674.64,-412.35C667.86,-398.19 667.35,-380.8 668.75,-366.18"/>
<polygon fill="#1818dd" stroke="black" points="672.24,-366.49 670.06,-356.12 665.3,-365.59 672.24,-366.49"/>
</g>
<!-- scipy&#45;&gt;spatialgasmodel_inference -->
<g id="edge27" class="edge">
<title>scipy&#45;&gt;spatialgasmodel_inference</title><style>.edge>path:hover{stroke-width:8}</style>
<path fill="none" stroke="black" d="M708.81,-624.8C728.58,-579.66 783.79,-454.33 804.64,-414.35"/>
</g>
<!-- scipy&#45;&gt;spatialgasmodel_starting_values -->
<g id="edge28" class="edge">
<title>scipy&#45;&gt;spatialgasmodel_starting_values</title><style>.edge>path:hover{stroke-width:8}</style>
<path fill="none" stroke="black" d="M703.23,-623.95C706.1,-584.6 708.99,-486.07 674.64,-414.35"/>
<path fill="none" stroke="black" d="M674.64,-412.35C655.63,-376.08 630.42,-385.26 601.64,-356.13 567.05,-321.13 458.13,-227.14 468.64,-179.07"/>
</g>
<!-- spatialgasmodel -->
<g id="node7" class="node">
<title>spatialgasmodel</title><style>.edge>path:hover{stroke-width:8}</style>
<ellipse fill="#c705c7" stroke="black" cx="284.64" cy="-178.07" rx="51.43" ry="18"/>
<text text-anchor="middle" x="284.64" y="-175.57" font-family="Helvetica,sans-Serif" font-size="10.00" fill="#ffffff">spatialgasmodel</text>
</g>
<!-- spatialgasmodel_covariates&#45;&gt;spatialgasmodel -->
<g id="edge29" class="edge">
<title>spatialgasmodel_covariates&#45;&gt;spatialgasmodel</title><style>.edge>path:hover{stroke-width:8}</style>
<path fill="none" stroke="black" d="M170.65,-474.75C147.53,-462.29 121.53,-442.37 116.64,-414.35"/>
</g>
<!-- spatialgasmodel_estimate&#45;&gt;spatialgasmodel_model -->
<g id="edge30" class="edge">
<title>spatialgasmodel_estimate&#45;&gt;spatialgasmodel_model</title><style>.edge>path:hover{stroke-width:8}</style>
<path fill="none" stroke="black" d="M625.26,-321.35C580.66,-309.99 513.24,-292.79 454.64,-277.71 448.51,-276.13 442.1,-274.47 435.71,-272.82"/>
<polygon fill="#822b82" stroke="black" points="436.29,-269.36 425.73,-270.24 434.54,-276.13 436.29,-269.36"/>
</g>
<!-- spatialgasmodel_filter&#45;&gt;spatialgasmodel_estimate -->
<g id="edge31" class="edge">
<title>spatialgasmodel_filter&#45;&gt;spatialgasmodel_estimate</title><style>.edge>path:hover{stroke-width:8}</style>
<path fill="none" stroke="black" d="M677.31,-194.42C699.17,-205.24 722.65,-222 727.67,-245.43"/>
<polygon fill="#b42db4" stroke="black" points="724.2,-245.87 728.64,-255.49 731.16,-245.2 724.2,-245.87"/>
</g>
<!-- spatialgasmodel_filter&#45;&gt;spatialgasmodel_likelihood -->
<g id="edge32" class="edge">
<title>spatialgasmodel_filter&#45;&gt;spatialgasmodel_likelihood</title><style>.edge>path:hover{stroke-width:8}</style>
<path fill="none" stroke="black" d="M646.62,-156.99C650.74,-148.71 655.58,-138.97 660.08,-129.93"/>
<polygon fill="#b42db4" stroke="black" points="663.27,-131.36 664.59,-120.85 657,-128.25 663.27,-131.36"/>
</g>
<!-- spatialgasmodel_inference&#45;&gt;spatialgasmodel_estimate -->
<g id="edge33" class="edge">
<title>spatialgasmodel_inference&#45;&gt;spatialgasmodel_estimate</title><style>.edge>path:hover{stroke-width:8}</style>
<path fill="none" stroke="black" d="M793.33,-42.4C773.1,-80.35 732.51,-165.69 728.9,-245.31"/>
<polygon fill="#a135a1" stroke="black" points="725.39,-245.41 728.64,-255.49 732.39,-245.58 725.39,-245.41"/>
</g>
<!-- spatialgasmodel_likelihood&#45;&gt;spatialgasmodel_estimate -->
<g id="edge34" class="edge">
<title>spatialgasmodel_likelihood&#45;&gt;spatialgasmodel_estimate</title><style>.edge>path:hover{stroke-width:8}</style>
<path fill="none" stroke="black" d="M689.52,-120.5C696.6,-130.85 704.6,-144.01 709.64,-156.85 724.6,-195.01 728.77,-208.62 728.74,-245.12"/>
<polygon fill="#b620b6" stroke="black" points="725.24,-245.46 728.64,-255.49 732.24,-245.53 725.24,-245.46"/>
</g>
<!-- spatialgasmodel_likelihood&#45;&gt;spatialgasmodel_inference -->
<g id="edge35" class="edge">
<title>spatialgasmodel_likelihood&#45;&gt;spatialgasmodel_inference</title><style>.edge>path:hover{stroke-width:8}</style>
<path fill="none" stroke="black" d="M704.79,-80.91C722.87,-70.28 746.06,-56.65 765.54,-45.2"/>
<polygon fill="#b620b6" stroke="black" points="767.35,-48.19 774.2,-40.11 763.81,-42.16 767.35,-48.19"/>
</g>
<!-- spatialgasmodel_likelihood&#45;&gt;spatialgasmodel_starting_values -->
<g id="edge36" class="edge">
<title>spatialgasmodel_likelihood&#45;&gt;spatialgasmodel_starting_values</title><style>.edge>path:hover{stroke-width:8}</style>
<path fill="none" stroke="black" d="M644.49,-80.91C626.41,-70.28 603.21,-56.65 583.74,-45.2"/>
<polygon fill="#b620b6" stroke="black" points="585.47,-42.16 575.08,-40.11 581.92,-48.19 585.47,-42.16"/>
</g>
<!-- spatialgasmodel_model&#45;&gt;spatialgasmodel -->
<g id="edge37" class="edge">
<title>spatialgasmodel_model&#45;&gt;spatialgasmodel</title><style>.edge>path:hover{stroke-width:8}</style>
<path fill="none" stroke="black" d="M353.9,-236.6C341.12,-225.98 325.09,-212.67 311.67,-201.52"/>
<polygon fill="#a328a3" stroke="black" points="313.64,-198.6 303.71,-194.91 309.16,-203.99 313.64,-198.6"/>
</g>
<!-- spatialgasmodel_model&#45;&gt;spatialgasmodel_filter -->
<g id="edge38" class="edge">
<title>spatialgasmodel_model&#45;&gt;spatialgasmodel_filter</title><style>.edge>path:hover{stroke-width:8}</style>
<path fill="none" stroke="black" d="M423.12,-241.83C467.17,-228.88 533.4,-209.41 580.4,-195.6"/>
<polygon fill="#a328a3" stroke="black" points="581.51,-198.92 590.12,-192.74 579.54,-192.2 581.51,-198.92"/>
</g>
<!-- spatialgasmodel_results&#45;&gt;spatialgasmodel_model -->
<g id="edge39" class="edge">
<title>spatialgasmodel_results&#45;&gt;spatialgasmodel_model</title><style>.edge>path:hover{stroke-width:8}</style>
<path fill="none" stroke="black" d="M243.94,-391.89C242.52,-376.3 241.94,-354.44 246.64,-335.92"/>
<path fill="none" stroke="black" d="M246.64,-333.92C254.67,-302.32 285.64,-283.38 315.34,-272.26"/>
<polygon fill="#bc2fbc" stroke="black" points="316.62,-275.52 324.91,-268.92 314.32,-268.91 316.62,-275.52"/>
</g>
<!-- spatialgasmodel_results&#45;&gt;spatialgasmodel_simulation -->
<g id="edge40" class="edge">
<title>spatialgasmodel_results&#45;&gt;spatialgasmodel_simulation</title><style>.edge>path:hover{stroke-width:8}</style>
<path fill="none" stroke="black" d="M269.38,-393.45C280.99,-383.81 295.29,-371.93 307.87,-361.48"/>
<polygon fill="#bc2fbc" stroke="black" points="310.39,-363.94 315.84,-354.86 305.91,-358.56 310.39,-363.94"/>
</g>
<!-- spatialgasmodel_simulation&#45;&gt;spatialgasmodel_model -->
<g id="edge41" class="edge">
<title>spatialgasmodel_simulation&#45;&gt;spatialgasmodel_model</title><style>.edge>path:hover{stroke-width:8}</style>
<path fill="none" stroke="black" d="M348.62,-313.84C352.74,-305.57 357.58,-295.82 362.08,-286.78"/>
<polygon fill="#993399" stroke="black" points="365.27,-288.22 366.59,-277.7 359,-285.1 365.27,-288.22"/>
</g>
<!-- spatialgasmodel_specification&#45;&gt;spatialgasmodel_estimate -->
<g id="edge42" class="edge">
<title>spatialgasmodel_specification&#45;&gt;spatialgasmodel_estimate</title><style>.edge>path:hover{stroke-width:8}</style>
<path fill="none" stroke="black" d="M430.64,-412.35C433.88,-375.89 534.17,-354.69 605.15,-344.22"/>
<polygon fill="#f906f9" stroke="black" points="605.99,-347.63 615.4,-342.75 605,-340.7 605.99,-347.63"/>
</g>
<!-- spatialgasmodel_specification&#45;&gt;spatialgasmodel_likelihood -->
<g id="edge43" class="edge">
<title>spatialgasmodel_specification&#45;&gt;spatialgasmodel_likelihood</title><style>.edge>path:hover{stroke-width:8}</style>
<path fill="none" stroke="black" d="M506.64,-333.92C521.66,-252.62 509.96,-219.72 563.64,-156.85 578.29,-139.69 599.47,-127.18 619.4,-118.37"/>
<polygon fill="#f906f9" stroke="black" points="620.87,-121.55 628.75,-114.47 618.17,-115.09 620.87,-121.55"/>
<path fill="none" stroke="black" d="M430.64,-412.35C434.27,-364.58 494.68,-382.3 506.64,-335.92"/>
</g>
<!-- spatialgasmodel_specification&#45;&gt;spatialgasmodel_model -->
<g id="edge44" class="edge">
<title>spatialgasmodel_specification&#45;&gt;spatialgasmodel_model</title><style>.edge>path:hover{stroke-width:8}</style>
<path fill="none" stroke="black" d="M430.64,-412.35C434.59,-367.87 427.93,-355.27 411.64,-313.71 407.9,-304.17 402.53,-294.47 397.11,-285.87"/>
<polygon fill="#f906f9" stroke="black" points="399.93,-283.79 391.52,-277.36 394.08,-287.63 399.93,-283.79"/>
</g>
<!-- spatialgasmodel_specification&#45;&gt;spatialgasmodel_results -->
<g id="edge45" class="edge">
<title>spatialgasmodel_specification&#45;&gt;spatialgasmodel_results</title><style>.edge>path:hover{stroke-width:8}</style>
<path fill="none" stroke="black" d="M425.84,-476.04C389.71,-463.6 337.86,-445.75 299.21,-432.44"/>
<polygon fill="#f906f9" stroke="black" points="300.28,-429.11 289.69,-429.17 298.01,-435.73 300.28,-429.11"/>
</g>
<!-- spatialgasmodel_specification&#45;&gt;spatialgasmodel_simulation -->
<g id="edge46" class="edge">
<title>spatialgasmodel_specification&#45;&gt;spatialgasmodel_simulation</title><style>.edge>path:hover{stroke-width:8}</style>
<path fill="none" stroke="black" d="M430.64,-412.35C432.9,-386.87 411.7,-368.22 389.08,-355.72"/>
<polygon fill="#f906f9" stroke="black" points="390.54,-352.54 380.05,-351.07 387.34,-358.76 390.54,-352.54"/>
<path fill="none" stroke="black" d="M451.64,-471.27C440.67,-456.53 428.78,-435.3 430.64,-414.35"/>
</g>
<!-- spatialgasmodel_specification&#45;&gt;spatialgasmodel_utils -->
<g id="edge47" class="edge">
<title>spatialgasmodel_specification&#45;&gt;spatialgasmodel_utils</title><style>.edge>path:hover{stroke-width:8}</style>
<path fill="none" stroke="black" d="M482.83,-470.69C488.9,-462.09 496.11,-451.89 502.71,-442.56"/>
<polygon fill="#f906f9" stroke="black" points="505.63,-444.48 508.55,-434.29 499.92,-440.44 505.63,-444.48"/>
</g>
<!-- spatialgasmodel_starting_values&#45;&gt;spatialgasmodel_estimate -->
<g id="edge48" class="edge">
<title>spatialgasmodel_starting_values&#45;&gt;spatialgasmodel_estimate</title><style>.edge>path:hover{stroke-width:8}</style>
<path fill="none" stroke="black" d="M728.64,-257.49C729.84,-280.21 713.58,-300.93 698.59,-315.05"/>
<path fill="none" stroke="black" d="M540.41,-42.59C534.22,-78.49 527.04,-153.53 563.64,-199.28 609.67,-256.82 713.2,-185.79 727.21,-245.27"/>
<polygon fill="#993399" stroke="black" points="723.79,-246.07 728.64,-255.49 730.72,-245.1 723.79,-246.07"/>
</g>
<!-- spatialgasmodel_utils&#45;&gt;spatialgasmodel -->
<g id="edge49" class="edge">
<title>spatialgasmodel_utils&#45;&gt;spatialgasmodel</title><style>.edge>path:hover{stroke-width:8}</style>
<path fill="none" stroke="black" d="M468.64,-255.49C447.35,-209.36 389.91,-191.01 344.82,-183.74"/>
<polygon fill="#bd04bd" stroke="black" points="345.22,-180.26 334.82,-182.28 344.21,-187.19 345.22,-180.26"/>
<path fill="none" stroke="black" d="M510.39,-392.37C504.37,-381.88 497.41,-368.64 492.64,-356.13 476.56,-313.98 487.55,-298.46 468.64,-257.49"/>
</g>
<!-- spatialgasmodel_utils&#45;&gt;spatialgasmodel_estimate -->
<g id="edge50" class="edge">
<title>spatialgasmodel_utils&#45;&gt;spatialgasmodel_estimate</title><style>.edge>path:hover{stroke-width:8}</style>
<path fill="none" stroke="black" d="M556.75,-395.19C578.85,-384.08 607.82,-369.51 631.51,-357.6"/>
<polygon fill="#bd04bd" stroke="black" points="633.28,-360.63 640.64,-353.01 630.14,-354.38 633.28,-360.63"/>
</g>
<!-- spatialgasmodel_utils&#45;&gt;spatialgasmodel_filter -->
<g id="edge51" class="edge">
<title>spatialgasmodel_utils&#45;&gt;spatialgasmodel_filter</title><style>.edge>path:hover{stroke-width:8}</style>
<path fill="none" stroke="black" d="M532.56,-392.05C552.78,-350.67 598.84,-256.42 622.31,-208.38"/>
<polygon fill="#bd04bd" stroke="black" points="625.58,-209.67 626.83,-199.15 619.29,-206.59 625.58,-209.67"/>
</g>
<!-- spatialgasmodel_utils&#45;&gt;spatialgasmodel_likelihood -->
<g id="edge52" class="edge">
<title>spatialgasmodel_utils&#45;&gt;spatialgasmodel_likelihood</title><style>.edge>path:hover{stroke-width:8}</style>
<path fill="none" stroke="black" d="M514.1,-392.28C508.6,-376.9 503.09,-355.11 506.64,-335.92"/>
</g>
<!-- spatialgasmodel_utils&#45;&gt;spatialgasmodel_simulation -->
<g id="edge53" class="edge">
<title>spatialgasmodel_utils&#45;&gt;spatialgasmodel_simulation</title><style>.edge>path:hover{stroke-width:8}</style>
<path fill="none" stroke="black" d="M484.07,-396.32C455.73,-384.55 417.05,-368.49 386.7,-355.88"/>
<polygon fill="#bd04bd" stroke="black" points="387.74,-352.52 377.16,-351.92 385.05,-358.99 387.74,-352.52"/>
</g>
<!-- spatialgasmodel_utils&#45;&gt;spatialgasmodel_starting_values -->
<g id="edge54" class="edge">
<title>spatialgasmodel_utils&#45;&gt;spatialgasmodel_starting_values</title><style>.edge>path:hover{stroke-width:8}</style>
<path fill="none" stroke="black" d="M468.64,-255.49C450.85,-226.56 461.39,-212.25 468.64,-179.07"/>
</g>
<!-- spatialgasmodel_version -->
<g id="node19" class="node">
<title>spatialgasmodel_version</title><style>.edge>path:hover{stroke-width:8}</style>
<ellipse fill="#c247c2" stroke="black" cx="192.64" cy="-256.49" rx="63.78" ry="21.43"/>
<text text-anchor="middle" x="192.64" y="-259.49" font-family="Helvetica,sans-Serif" font-size="10.00" fill="#ffffff">spatialgasmodel.</text>
<text text-anchor="middle" x="192.64" y="-248.49" font-family="Helvetica,sans-Serif" font-size="10.00" fill="#ffffff">version</text>
</g>
<!-- spatialgasmodel_version&#45;&gt;spatialgasmodel -->
<g id="edge55" class="edge">
<title>spatialgasmodel_version&#45;&gt;spatialgasmodel</title><style>.edge>path:hover{stroke-width:8}</style>
<path fill="none" stroke="black" d="M215.38,-236.6C228.16,-225.98 244.19,-212.67 257.61,-201.52"/>
<polygon fill="#c247c2" stroke="black" points="260.12,-203.99 265.57,-194.91 255.64,-198.6 260.12,-203.99"/>
</g>
<!-- spatialgasmodel_weighting_matrix&#45;&gt;spatialgasmodel -->
<g id="edge56" class="edge">
<title>spatialgasmodel_weighting_matrix&#45;&gt;spatialgasmodel</title><style>.edge>path:hover{stroke-width:8}</style>
<path fill="none" stroke="black" d="M116.64,-412.35C103.12,-334.81 73.29,-298.89 119.64,-235.28 143.5,-202.53 187.55,-188.66 224.13,-182.88"/>
<polygon fill="#c040bf" stroke="black" points="224.82,-186.32 234.23,-181.45 223.84,-179.39 224.82,-186.32"/>
<path fill="none" stroke="black" d="M88.9,-472.09C104.96,-457.75 121.84,-436.68 116.64,-414.35"/>
</g>
</g>
</svg>
